<svg width="24" height="24" viewBox="0 0 24 24" fill="none" xmlns="http://www.w3.org/2000/svg">
<path d="M12 22C12.3141 22 12.6062 21.8587 13.1901 21.576L17.8842 19.3041C19.9614 18.2987 21 17.796 21 17V7M12 22C11.6859 22 11.3938 21.8587 10.8099 21.576L6.11575 19.3041C4.03859 18.2987 3 17.796 3 17V7M12 22V12" stroke="#181818" stroke-width="1.5" stroke-linecap="round" stroke-linejoin="round"/>
<path d="M10.8099 2.42399C11.3938 2.14133 11.6859 2 12 2C12.3141 2 12.6062 2.14133 13.1901 2.42399L17.8842 4.69594C19.9614 5.70129 21 6.20397 21 7C21 7.79603 19.9614 8.29871 17.8842 9.30406L13.1901 11.576C12.6062 11.8587 12.3141 12 12 12C11.6859 12 11.3938 11.8587 10.8099 11.576L6.11575 9.30406C4.03859 8.29871 3 7.79603 3 7C3 6.20397 4.03859 5.70129 6.11575 4.69594L10.8099 2.42399Z" stroke="#181818" stroke-width="1.5" stroke-linejoin="round"/>
</svg>
