<svg width="20" height="20" viewBox="0 0 20 20" fill="none" xmlns="http://www.w3.org/2000/svg">
<g clip-path="url(#clip0_897_35781)">
<path d="M17.491 8.33373H2.49463M13.3254 1.66866V5.0012M6.66029 1.66866V5.0012M6.49367 18.3313H13.492C14.8918 18.3313 15.5917 18.3313 16.1263 18.0589C16.5966 17.8193 16.979 17.4369 17.2186 16.9666C17.491 16.432 17.491 15.7321 17.491 14.3323V7.33397C17.491 5.93417 17.491 5.23428 17.2186 4.69962C16.979 4.22933 16.5966 3.84697 16.1263 3.60735C15.5917 3.33493 14.8918 3.33493 13.492 3.33493H6.49367C5.09387 3.33493 4.39398 3.33493 3.85932 3.60735C3.38903 3.84697 3.00667 4.22933 2.76705 4.69962C2.49463 5.23428 2.49463 5.93417 2.49463 7.33397V14.3323C2.49463 15.7321 2.49463 16.432 2.76705 16.9666C3.00667 17.4369 3.38903 17.8193 3.85932 18.0589C4.39398 18.3313 5.09387 18.3313 6.49367 18.3313Z" stroke="#8D8A8A" stroke-width="1.49964" stroke-linecap="round" stroke-linejoin="round"/>
</g>
<defs>
<clipPath id="clip0_897_35781">
<rect width="19.9952" height="19.9952" fill="white" transform="translate(-0.00488281 0.00240326)"/>
</clipPath>
</defs>
</svg>
