<svg width="24" height="24" viewBox="0 0 24 24" fill="none" xmlns="http://www.w3.org/2000/svg">
<path d="M1.99048 4.6C1.99048 4.03995 1.99048 3.75992 2.09947 3.54601C2.19535 3.35785 2.34833 3.20487 2.53649 3.10899C2.7504 3 3.03043 3 3.59048 3H20.3905C20.9505 3 21.2306 3 21.4445 3.10899C21.6326 3.20487 21.7856 3.35785 21.8815 3.54601C21.9905 3.75992 21.9905 4.03995 21.9905 4.6V5.26939C21.9905 5.53819 21.9905 5.67259 21.9576 5.79756C21.9285 5.90831 21.8806 6.01323 21.816 6.10776C21.7431 6.21443 21.6415 6.30245 21.4384 6.4785L15.0426 12.0215C14.8395 12.1975 14.7379 12.2856 14.665 12.3922C14.6003 12.4868 14.5524 12.5917 14.5233 12.7024C14.4905 12.8274 14.4905 12.9618 14.4905 13.2306V18.4584C14.4905 18.6539 14.4905 18.7517 14.4589 18.8363C14.4311 18.911 14.3857 18.9779 14.3267 19.0315C14.26 19.0922 14.1692 19.1285 13.9876 19.2012L10.5876 20.5612C10.22 20.7082 10.0363 20.7817 9.88875 20.751C9.75974 20.7242 9.64653 20.6476 9.57373 20.5377C9.49048 20.4122 9.49048 20.2142 9.49048 19.8184V13.2306C9.49048 12.9618 9.49048 12.8274 9.45763 12.7024C9.42853 12.5917 9.38061 12.4868 9.31599 12.3922C9.24306 12.2856 9.14149 12.1975 8.93837 12.0215L2.54259 6.4785C2.33946 6.30245 2.2379 6.21443 2.16497 6.10776C2.10034 6.01323 2.05243 5.90831 2.02332 5.79756C1.99048 5.67259 1.99048 5.53819 1.99048 5.26939V4.6Z" stroke="#ACACAC" stroke-width="2" stroke-linecap="round" stroke-linejoin="round"/>
</svg>
