<svg width="128" height="45" viewBox="0 0 128 45" fill="none" xmlns="http://www.w3.org/2000/svg">
<g filter="url(#filter0_d_897_35712)">
<path d="M14.6448 5.58017C14.5725 4.85062 14.262 4.28386 13.7133 3.87989C13.1646 3.47592 12.42 3.27394 11.4794 3.27394C10.8403 3.27394 10.3007 3.36438 9.86053 3.54526C9.42039 3.72011 9.08275 3.9643 8.8476 4.27783C8.61849 4.59136 8.50393 4.94709 8.50393 5.34503C8.49187 5.67664 8.56121 5.96605 8.71194 6.21325C8.8687 6.46046 9.08275 6.6745 9.35407 6.85538C9.62539 7.03023 9.93892 7.18398 10.2946 7.31662C10.6504 7.44324 11.0302 7.55177 11.4342 7.64221L13.0983 8.04015C13.9062 8.22103 14.6478 8.4622 15.3231 8.76367C15.9984 9.06514 16.5833 9.43594 17.0777 9.87609C17.5721 10.3162 17.9549 10.8348 18.2263 11.4317C18.5036 12.0286 18.6453 12.7129 18.6513 13.4847C18.6453 14.6182 18.3559 15.601 17.7831 16.433C17.2163 17.259 16.3964 17.9012 15.3231 18.3594C14.2559 18.8116 12.9687 19.0377 11.4613 19.0377C9.96605 19.0377 8.66371 18.8086 7.55431 18.3503C6.45093 17.8921 5.58874 17.2138 4.96771 16.3154C4.35272 15.411 4.03015 14.2926 4 12.9601H7.78945C7.83166 13.5811 8.00952 14.0996 8.32305 14.5157C8.6426 14.9257 9.06767 15.2362 9.59826 15.4472C10.1349 15.6522 10.7408 15.7547 11.4161 15.7547C12.0793 15.7547 12.6551 15.6582 13.1435 15.4653C13.6379 15.2724 14.0208 15.0041 14.2921 14.6604C14.5634 14.3167 14.6991 13.9218 14.6991 13.4756C14.6991 13.0596 14.5755 12.7099 14.3283 12.4265C14.0871 12.1431 13.7314 11.9019 13.2611 11.703C12.7968 11.504 12.2271 11.3231 11.5518 11.1603L9.53495 10.6539C7.97335 10.274 6.74034 9.68013 5.83594 8.8722C4.93154 8.06426 4.48235 6.97596 4.48838 5.6073C4.48235 4.48584 4.7808 3.50607 5.38374 2.66799C5.9927 1.82991 6.82777 1.17572 7.88893 0.705435C8.9501 0.235145 10.156 0 11.5065 0C12.8812 0 14.0811 0.235145 15.1061 0.705435C16.1371 1.17572 16.939 1.82991 17.5118 2.66799C18.0846 3.50607 18.38 4.4768 18.3981 5.58017H14.6448Z" fill="black"/>
<path d="M25.1743 19.0377C24.288 19.0377 23.4982 18.8839 22.8048 18.5764C22.1114 18.2629 21.5628 17.8017 21.1588 17.1927C20.7609 16.5777 20.5619 15.812 20.5619 14.8955C20.5619 14.1238 20.7036 13.4756 20.987 12.9511C21.2703 12.4265 21.6562 12.0044 22.1446 11.6849C22.633 11.3653 23.1877 11.1242 23.8087 10.9614C24.4357 10.7986 25.0929 10.684 25.7803 10.6177C26.5882 10.5333 27.2394 10.4549 27.7338 10.3826C28.2282 10.3042 28.587 10.1896 28.81 10.0389C29.0331 9.88814 29.1447 9.66506 29.1447 9.36962V9.31536C29.1447 8.74257 28.9638 8.29941 28.602 7.98588C28.2463 7.67236 27.7398 7.51559 27.0826 7.51559C26.3893 7.51559 25.8376 7.66934 25.4276 7.97684C25.0176 8.27831 24.7463 8.65816 24.6136 9.11639L21.0503 8.82698C21.2311 7.98287 21.5869 7.25332 22.1175 6.63832C22.648 6.0173 23.3324 5.54098 24.1705 5.20936C25.0146 4.87172 25.9913 4.7029 27.1007 4.7029C27.8725 4.7029 28.6111 4.79334 29.3165 4.97422C30.028 5.1551 30.658 5.43546 31.2067 5.81531C31.7614 6.19516 32.1985 6.68354 32.5181 7.28045C32.8377 7.87133 32.9974 8.57977 32.9974 9.4058V18.7754H29.3436V16.849H29.2351C29.012 17.2832 28.7136 17.666 28.3398 17.9976C27.9659 18.3232 27.5167 18.5795 26.9922 18.7664C26.4676 18.9473 25.8617 19.0377 25.1743 19.0377ZM26.2777 16.3787C26.8445 16.3787 27.3449 16.2672 27.779 16.0441C28.2131 15.815 28.5538 15.5075 28.801 15.1216C29.0482 14.7357 29.1718 14.2986 29.1718 13.8102V12.3361C29.0512 12.4144 28.8854 12.4868 28.6744 12.5531C28.4694 12.6134 28.2373 12.6707 27.978 12.725C27.7187 12.7732 27.4595 12.8184 27.2002 12.8606C26.9409 12.8968 26.7058 12.93 26.4948 12.9601C26.0426 13.0264 25.6476 13.1319 25.31 13.2766C24.9724 13.4213 24.7101 13.6173 24.5232 13.8645C24.3363 14.1057 24.2428 14.4071 24.2428 14.7689C24.2428 15.2935 24.4327 15.6944 24.8126 15.9718C25.1985 16.2431 25.6868 16.3787 26.2777 16.3787Z" fill="black"/>
<path d="M39.8392 0.253233V18.7754H35.9865V0.253233H39.8392Z" fill="black"/>
<path d="M49.2563 19.0467C47.8274 19.0467 46.5974 18.7573 45.5664 18.1785C44.5414 17.5937 43.7515 16.7676 43.1968 15.7004C42.6421 14.6272 42.3648 13.358 42.3648 11.8929C42.3648 10.4639 42.6421 9.20984 43.1968 8.13059C43.7515 7.05133 44.5323 6.21024 45.5392 5.6073C46.5522 5.00437 47.74 4.7029 49.1026 4.7029C50.0191 4.7029 50.8722 4.85062 51.6621 5.14606C52.4579 5.43547 53.1513 5.87259 53.7422 6.45744C54.3391 7.04229 54.8034 7.77787 55.135 8.66419C55.4666 9.54447 55.6324 10.5755 55.6324 11.7572V12.8154H43.9023V10.4278H52.0057C52.0057 9.87307 51.8851 9.38168 51.644 8.9536C51.4028 8.52551 51.0682 8.19088 50.6401 7.94971C50.218 7.7025 49.7266 7.5789 49.1659 7.5789C48.5811 7.5789 48.0625 7.71456 47.6103 7.98588C47.1642 8.25117 46.8145 8.60992 46.5612 9.06212C46.308 9.5083 46.1784 10.0057 46.1723 10.5544V12.8244C46.1723 13.5118 46.2989 14.1057 46.5522 14.6061C46.8114 15.1066 47.1762 15.4924 47.6465 15.7638C48.1168 16.0351 48.6745 16.1707 49.3197 16.1707C49.7477 16.1707 50.1396 16.1104 50.4954 15.9899C50.8511 15.8693 51.1556 15.6884 51.4088 15.4472C51.6621 15.206 51.855 14.9106 51.9876 14.5609L55.551 14.796C55.3701 15.6522 54.9993 16.3998 54.4386 17.039C53.8839 17.672 53.1664 18.1665 52.2861 18.5222C51.4118 18.8719 50.4019 19.0467 49.2563 19.0467Z" fill="black"/>
<path d="M69.7049 8.84507L66.1777 9.06212C66.1174 8.76066 65.9878 8.48933 65.7888 8.24816C65.5899 8.00096 65.3276 7.805 65.002 7.6603C64.6825 7.50956 64.2996 7.4342 63.8534 7.4342C63.2565 7.4342 62.7531 7.56081 62.3431 7.81405C61.9331 8.06125 61.7281 8.39286 61.7281 8.80889C61.7281 9.1405 61.8607 9.42087 62.126 9.64999C62.3913 9.8791 62.8465 10.063 63.4917 10.2017L66.0059 10.7081C67.3565 10.9855 68.3634 11.4317 69.0266 12.0467C69.6898 12.6616 70.0214 13.4696 70.0214 14.4705C70.0214 15.3809 69.7531 16.1798 69.2165 16.8671C68.6859 17.5545 67.9564 18.0911 67.0279 18.477C66.1054 18.8568 65.0412 19.0467 63.8353 19.0467C61.9964 19.0467 60.5312 18.6639 59.4399 17.8981C58.3546 17.1264 57.7185 16.0773 57.5316 14.7508L61.3211 14.5519C61.4356 15.1126 61.713 15.5407 62.1531 15.8361C62.5933 16.1255 63.157 16.2702 63.8444 16.2702C64.5197 16.2702 65.0623 16.1406 65.4723 15.8813C65.8883 15.616 66.0994 15.2754 66.1054 14.8593C66.0994 14.5096 65.9516 14.2233 65.6622 14.0002C65.3728 13.7711 64.9266 13.5962 64.3237 13.4756L61.918 12.9963C60.5614 12.725 59.5515 12.2547 58.8882 11.5854C58.231 10.9162 57.9024 10.063 57.9024 9.02595C57.9024 8.1336 58.1436 7.36486 58.626 6.71972C59.1143 6.07458 59.7987 5.57716 60.679 5.22745C61.5653 4.87775 62.6023 4.7029 63.7901 4.7029C65.5447 4.7029 66.9254 5.0737 67.9323 5.81531C68.9452 6.55692 69.5361 7.56684 69.7049 8.84507Z" fill="black"/>
<path d="M72.5199 0.253233H77.3494L82.4502 8.20347H82.6673L87.7681 0.253233H92.5976V18.7754H88.7991V6.71972H88.6454L83.852 13.4416H81.2654L76.4721 6.6745H76.3184V18.7754H72.5199V0.253233Z" fill="black"/>
<path d="M99.713 19.0377C98.8267 19.0377 98.0369 18.8839 97.3435 18.5764C96.6501 18.2629 96.1014 17.8017 95.6975 17.1927C95.2995 16.5777 95.1005 15.812 95.1005 14.8955C95.1005 14.1238 95.2422 13.4756 95.5256 12.9511C95.809 12.4265 96.1949 12.0044 96.6833 11.6849C97.1716 11.3653 97.7263 11.1242 98.3474 10.9614C98.9744 10.7986 99.6316 10.684 100.319 10.6177C101.127 10.5333 101.778 10.4549 102.272 10.3826C102.767 10.3042 103.126 10.1896 103.349 10.0389C103.572 9.88814 103.683 9.66506 103.683 9.36962V9.31536C103.683 8.74257 103.502 8.29941 103.141 7.98588C102.785 7.67236 102.278 7.51559 101.621 7.51559C100.928 7.51559 100.376 7.66934 99.9662 7.97684C99.5562 8.27831 99.2849 8.65816 99.1523 9.11639L95.5889 8.82698C95.7698 7.98287 96.1255 7.25332 96.6561 6.63832C97.1867 6.0173 97.871 5.54098 98.7091 5.20936C99.5532 4.87172 100.53 4.7029 101.639 4.7029C102.411 4.7029 103.15 4.79334 103.855 4.97422C104.567 5.1551 105.197 5.43546 105.745 5.81531C106.3 6.19516 106.737 6.68354 107.057 7.28045C107.376 7.87133 107.536 8.57977 107.536 9.4058V18.7754H103.882V16.849H103.774C103.551 17.2832 103.252 17.666 102.878 17.9976C102.505 18.3232 102.055 18.5795 101.531 18.7664C101.006 18.9473 100.4 19.0377 99.713 19.0377ZM100.816 16.3787C101.383 16.3787 101.884 16.2672 102.318 16.0441C102.752 15.815 103.092 15.5075 103.34 15.1216C103.587 14.7357 103.71 14.2986 103.71 13.8102V12.3361C103.59 12.4144 103.424 12.4868 103.213 12.5531C103.008 12.6134 102.776 12.6707 102.517 12.725C102.257 12.7732 101.998 12.8184 101.739 12.8606C101.48 12.8968 101.244 12.93 101.033 12.9601C100.581 13.0264 100.186 13.1319 99.8487 13.2766C99.511 13.4213 99.2487 13.6173 99.0618 13.8645C98.8749 14.1057 98.7815 14.4071 98.7815 14.7689C98.7815 15.2935 98.9714 15.6944 99.3512 15.9718C99.7371 16.2431 100.226 16.3787 100.816 16.3787Z" fill="black"/>
<path d="M114.378 10.7443V18.7754H110.525V4.88378H114.197V7.33471H114.36C114.667 6.52678 115.183 5.88767 115.906 5.41738C116.63 4.94106 117.507 4.7029 118.538 4.7029C119.503 4.7029 120.344 4.91393 121.061 5.33598C121.779 5.75804 122.337 6.36097 122.735 7.14479C123.133 7.92257 123.332 8.8511 123.332 9.93035V18.7754H119.479V10.6177C119.485 9.76756 119.268 9.10433 118.828 8.62801C118.387 8.14566 117.781 7.90449 117.01 7.90449C116.491 7.90449 116.033 8.01603 115.635 8.23912C115.243 8.4622 114.936 8.78779 114.713 9.21587C114.495 9.63793 114.384 10.1474 114.378 10.7443Z" fill="black"/>
<path d="M9.14313 30.6955C9.11121 30.3736 8.97422 30.1236 8.73216 29.9454C8.4901 29.7672 8.16159 29.6781 7.74662 29.6781C7.46466 29.6781 7.22659 29.718 7.03241 29.7978C6.83823 29.8749 6.68927 29.9826 6.58553 30.1209C6.48445 30.2593 6.43391 30.4162 6.43391 30.5918C6.42859 30.7381 6.45918 30.8658 6.52568 30.9748C6.59484 31.0839 6.68927 31.1783 6.80897 31.2581C6.92867 31.3352 7.06699 31.4031 7.22393 31.4616C7.38087 31.5175 7.54845 31.5653 7.72667 31.6052L8.46084 31.7808C8.81728 31.8606 9.14446 31.967 9.44238 32.1C9.7403 32.233 9.99832 32.3966 10.2164 32.5908C10.4346 32.7849 10.6035 33.0137 10.7232 33.277C10.8455 33.5404 10.908 33.8423 10.9107 34.1828C10.908 34.6829 10.7804 35.1164 10.5277 35.4835C10.2776 35.8479 9.91586 36.1312 9.44238 36.3334C8.97156 36.5329 8.40365 36.6327 7.73864 36.6327C7.07896 36.6327 6.5044 36.5316 6.01496 36.3294C5.52818 36.1272 5.14779 35.828 4.87381 35.4317C4.60249 35.0327 4.46018 34.5392 4.44688 33.9514H6.1187C6.13732 34.2253 6.21579 34.4541 6.35411 34.6376C6.49509 34.8185 6.68262 34.9555 6.9167 35.0486C7.15344 35.1391 7.42077 35.1843 7.71869 35.1843C8.01129 35.1843 8.26533 35.1417 8.48079 35.0566C8.69891 34.9715 8.86782 34.8531 8.98752 34.7015C9.10722 34.5499 9.16707 34.3756 9.16707 34.1788C9.16707 33.9953 9.11254 33.841 9.00348 33.716C8.89708 33.5909 8.74014 33.4845 8.53266 33.3967C8.32784 33.309 8.07647 33.2292 7.77854 33.1573L6.88877 32.9339C6.19983 32.7663 5.65586 32.5043 5.25685 32.1479C4.85785 31.7914 4.65968 31.3113 4.66234 30.7075C4.65968 30.2127 4.79135 29.7805 5.05735 29.4107C5.32601 29.041 5.69443 28.7524 6.16259 28.5449C6.63075 28.3374 7.16275 28.2337 7.75859 28.2337C8.36508 28.2337 8.89442 28.3374 9.34662 28.5449C9.80148 28.7524 10.1553 29.041 10.408 29.4107C10.6607 29.7805 10.791 30.2087 10.799 30.6955H9.14313ZM21.4816 28.3454H23.4167L25.2801 31.8646H25.3599L27.2232 28.3454H29.1584L26.1778 33.6282V36.5169H24.4621V33.6282L21.4816 28.3454ZM44.4225 30.6955C44.3906 30.3736 44.2536 30.1236 44.0115 29.9454C43.7695 29.7672 43.4409 29.6781 43.026 29.6781C42.744 29.6781 42.5059 29.718 42.3118 29.7978C42.1176 29.8749 41.9686 29.9826 41.8649 30.1209C41.7638 30.2593 41.7133 30.4162 41.7133 30.5918C41.7079 30.7381 41.7385 30.8658 41.805 30.9748C41.8742 31.0839 41.9686 31.1783 42.0883 31.2581C42.208 31.3352 42.3463 31.4031 42.5033 31.4616C42.6602 31.5175 42.8278 31.5653 43.006 31.6052L43.7402 31.7808C44.0966 31.8606 44.4238 31.967 44.7217 32.1C45.0197 32.233 45.2777 32.3966 45.4958 32.5908C45.7139 32.7849 45.8828 33.0137 46.0025 33.277C46.1249 33.5404 46.1874 33.8423 46.1901 34.1828C46.1874 34.6829 46.0597 35.1164 45.807 35.4835C45.557 35.8479 45.1952 36.1312 44.7217 36.3334C44.2509 36.5329 43.683 36.6327 43.018 36.6327C42.3583 36.6327 41.7838 36.5316 41.2943 36.3294C40.8075 36.1272 40.4271 35.828 40.1532 35.4317C39.8818 35.0327 39.7395 34.5392 39.7262 33.9514H41.3981C41.4167 34.2253 41.4951 34.4541 41.6335 34.6376C41.7744 34.8185 41.962 34.9555 42.1961 35.0486C42.4328 35.1391 42.7001 35.1843 42.998 35.1843C43.2906 35.1843 43.5447 35.1417 43.7601 35.0566C43.9783 34.9715 44.1472 34.8531 44.2669 34.7015C44.3866 34.5499 44.4464 34.3756 44.4464 34.1788C44.4464 33.9953 44.3919 33.841 44.2828 33.716C44.1764 33.5909 44.0195 33.4845 43.812 33.3967C43.6072 33.309 43.3558 33.2292 43.0579 33.1573L42.1681 32.9339C41.4792 32.7663 40.9352 32.5043 40.5362 32.1479C40.1372 31.7914 39.939 31.3113 39.9417 30.7075C39.939 30.2127 40.0707 29.7805 40.3367 29.4107C40.6054 29.041 40.9738 28.7524 41.4419 28.5449C41.9101 28.3374 42.4421 28.2337 43.0379 28.2337C43.6444 28.2337 44.1738 28.3374 44.626 28.5449C45.0808 28.7524 45.4346 29.041 45.6873 29.4107C45.94 29.7805 46.0704 30.2087 46.0783 30.6955H44.4225ZM56.9285 29.7698V28.3454H63.6397V29.7698H61.138V36.5169H59.4302V29.7698H56.9285ZM74.6325 36.5169V28.3454H80.1387V29.7698H76.3602V31.717H79.8554V33.1414H76.3602V35.0925H80.1547V36.5169H74.6325ZM91.3999 28.3454H93.5305L95.7809 33.8357H95.8767L98.127 28.3454H100.258V36.5169H98.5819V31.1983H98.5141L96.3994 36.477H95.2582L93.1435 31.1783H93.0757V36.5169H91.3999V28.3454Z" fill="black" fill-opacity="0.56"/>
</g>
<defs>
<filter id="filter0_d_897_35712" x="0" y="0" width="127.332" height="44.6327" filterUnits="userSpaceOnUse" color-interpolation-filters="sRGB">
<feFlood flood-opacity="0" result="BackgroundImageFix"/>
<feColorMatrix in="SourceAlpha" type="matrix" values="0 0 0 0 0 0 0 0 0 0 0 0 0 0 0 0 0 0 127 0" result="hardAlpha"/>
<feOffset dy="4"/>
<feGaussianBlur stdDeviation="2"/>
<feComposite in2="hardAlpha" operator="out"/>
<feColorMatrix type="matrix" values="0 0 0 0 0 0 0 0 0 0 0 0 0 0 0 0 0 0 0.25 0"/>
<feBlend mode="normal" in2="BackgroundImageFix" result="effect1_dropShadow_897_35712"/>
<feBlend mode="normal" in="SourceGraphic" in2="effect1_dropShadow_897_35712" result="shape"/>
</filter>
</defs>
</svg>
