<svg width="24" height="23" viewBox="0 0 24 23" fill="none" xmlns="http://www.w3.org/2000/svg">
<g filter="url(#filter0_d_19_3636)">
<path d="M14.9997 18C14.9997 19.6569 13.6566 21 11.9997 21C10.3429 21 8.99972 19.6569 8.99972 18M13.7962 5.23856C14.2317 4.78864 14.4997 4.17562 14.4997 3.5C14.4997 2.11929 13.3804 1 11.9997 1C10.619 1 9.49972 2.11929 9.49972 3.5C9.49972 4.17562 9.76772 4.78864 10.2032 5.23856M17.9997 10.2C17.9997 8.82087 17.3676 7.49823 16.2424 6.52304C15.1171 5.54786 13.591 5 11.9997 5C10.4084 5 8.8823 5.54786 7.75708 6.52304C6.63186 7.49823 5.99972 8.82087 5.99972 10.2C5.99972 12.4818 5.43385 14.1506 4.72778 15.3447C3.92306 16.7056 3.5207 17.3861 3.53659 17.5486C3.55476 17.7346 3.58824 17.7933 3.73906 17.9036C3.87089 18 4.53323 18 5.85791 18H18.1415C19.4662 18 20.1286 18 20.2604 17.9036C20.4112 17.7933 20.4447 17.7346 20.4629 17.5486C20.4787 17.3861 20.0764 16.7056 19.2717 15.3447C18.5656 14.1506 17.9997 12.4818 17.9997 10.2Z" stroke="black" stroke-width="2" stroke-linecap="round" stroke-linejoin="round" shape-rendering="crispEdges"/>
</g>
<defs>
<filter id="filter0_d_19_3636" x="-1.46387" y="0" width="26.927" height="30" filterUnits="userSpaceOnUse" color-interpolation-filters="sRGB">
<feFlood flood-opacity="0" result="BackgroundImageFix"/>
<feColorMatrix in="SourceAlpha" type="matrix" values="0 0 0 0 0 0 0 0 0 0 0 0 0 0 0 0 0 0 127 0" result="hardAlpha"/>
<feOffset dy="4"/>
<feGaussianBlur stdDeviation="2"/>
<feComposite in2="hardAlpha" operator="out"/>
<feColorMatrix type="matrix" values="0 0 0 0 0 0 0 0 0 0 0 0 0 0 0 0 0 0 0.25 0"/>
<feBlend mode="normal" in2="BackgroundImageFix" result="effect1_dropShadow_19_3636"/>
<feBlend mode="normal" in="SourceGraphic" in2="effect1_dropShadow_19_3636" result="shape"/>
</filter>
</defs>
</svg>
