<svg width="21" height="20" viewBox="0 0 21 20" fill="none" xmlns="http://www.w3.org/2000/svg">
<path d="M3.90161 10.8331V10.1635C3.90161 7.69132 3.90161 6.45521 4.2923 5.46795C4.92037 3.88081 6.24866 2.6289 7.93261 2.03692C8.98008 1.66869 10.2916 1.66869 12.9146 1.66869C14.4135 1.66869 15.1629 1.66869 15.7614 1.87911C16.7237 2.21738 17.4827 2.93276 17.8416 3.8397C18.0649 4.40384 18.0649 5.11019 18.0649 6.52288V10.0118V10.8331" stroke="#8D8A8A" stroke-width="1.2497" stroke-linecap="round" stroke-linejoin="round"/>
<path d="M3.90161 10C3.90161 8.46629 5.14496 7.22289 6.67872 7.22289C7.23341 7.22289 7.88735 7.32009 8.42666 7.17558C8.90584 7.04718 9.28012 6.6729 9.40854 6.19372C9.553 5.65441 9.45586 5.00047 9.45586 4.44578C9.45586 2.91202 10.6992 1.66867 12.2329 1.66867" stroke="#8D8A8A" stroke-width="1.2497" stroke-linecap="round" stroke-linejoin="round"/>
<path d="M3.90161 18.3313V15.8319M3.90161 15.8319V14.3323C3.90161 13.861 3.90161 13.6254 4.04803 13.4789C4.19443 13.3325 4.43008 13.3325 4.90137 13.3325H5.56788C6.25807 13.3325 6.81758 13.8921 6.81758 14.5822C6.81758 15.2724 6.25807 15.8319 5.56788 15.8319H3.90161ZM18.0649 13.3325H16.8152C16.0297 13.3325 15.637 13.3325 15.3929 13.5766C15.1489 13.8206 15.1489 14.2133 15.1489 14.9988V15.8319M15.1489 15.8319V18.3313M15.1489 15.8319H17.2317M12.6495 15.8319C12.6495 17.2124 11.5305 18.3313 10.1501 18.3313C9.83868 18.3313 9.68289 18.3313 9.56692 18.2643C9.28919 18.1041 9.31698 17.7795 9.31698 17.4982V14.1657C9.31698 13.8844 9.28919 13.5598 9.56692 13.3995C9.68289 13.3325 9.83868 13.3325 10.1501 13.3325C11.5305 13.3325 12.6495 14.4515 12.6495 15.8319Z" stroke="#8D8A8A" stroke-width="1.2497" stroke-linecap="round" stroke-linejoin="round"/>
</svg>
